<?xml version="1.0" encoding="utf-8"?>
<!-- Generator: Adobe Illustrator 21.0.2, SVG Export Plug-In . SVG Version: 6.00 Build 0)  -->
<svg version="1.1" id="Layer_1" xmlns="http://www.w3.org/2000/svg" xmlns:xlink="http://www.w3.org/1999/xlink" x="0px" y="0px"
	 viewBox="0 0 500 500" enable-background="new 0 0 500 500" xml:space="preserve">
<g display="none">
	<path display="inline" fill-rule="evenodd" clip-rule="evenodd" fill="#0A4792" d="M409.6,271.2l0.2-0.6l0.2-0.4l0.2-0.6l0.2-0.6
		l0.2-0.4l0.2-0.6l0.2-0.6l0.2-0.6l0.2-0.4l0.2-0.6l0.2-0.6l0.2-0.4l0.2-0.6l0.2-0.6l0.2-0.6l0.2-0.4l0.2-0.6l0.2-0.6l0.2-0.4
		l0.2-0.6l0.2-0.6l0.2-0.6l0.2-0.4l0.2-0.6l0.2-0.6l0.2-0.4l0.2-0.6l0.2-0.6l0.2-0.6l0.2-0.4l0.2-0.6l0.2-0.6l0.2-0.4l0.2-0.6
		l0.2-0.6l0.2-0.6l0.2-0.4l0.2-0.6l0.2-0.6l0.2-0.4l0.2-0.6l0.2-0.6l0.2-0.6l0.2-0.4l0.2-0.6l0.2-0.6l0.2-0.6l0.2-0.4l0.2-0.6
		l0.2-0.6l0.2-0.4l0.2-0.6l0.2-0.6l0.2-0.6l0.2-0.4l0.2-0.6l0.2-0.6l0.2-0.4l0.2-0.6l0.2-0.6l0.2-0.6l0.2-0.4l0.2-0.6l0.2-0.6
		l0.2-0.4l0.2-0.6l0.2-0.6l0.2-0.6l0.2-0.4l0.2-0.6l0.2-0.6l0.2-0.6l0.2-0.4l0.2-0.6l0.2-0.6l0.2-0.4l0.2-0.6l0.2-0.6l0.2-0.6
		l0.2-0.6l0.2-0.6l0.2-0.4l0.2-0.6l0.2-0.6l0.2-0.6l0.2-0.4l0.2-0.6l0.2-0.6l0.2-0.6l0.2-0.4l0.2-0.6l0.2-0.6l0.2-0.6l0.2-0.4
		l0.2-0.6l0.2-0.6l0.2-0.4l0.2-0.6l0.2-0.6l0.2-0.6l0.2-0.6l0.2-0.4l0.2-0.6l0.2-0.6v1.1l0.2,0.8l0.2,1l0.2,1l0.2,0.9l0.2,1l0.2,1
		l0.2,1l0.2,1l0.2,0.9l0.2,1l0.2,0.9l0.2,1l0.2,0.9l0.2,1l0.2,0.8l0.2,1l0.2,1l0.2,1l0.2,1l0.2,0.9l0.2,0.8l0.2,1l0.2,1l0.2,1l0.2,1
		l0.2,0.8l0.2,1l0.2,1l0.2,0.9l0.2,1l0.2,0.9l0.2,0.8l0.2,0.9l0.2,1l0.2,0.9l0.2,1l0.2,1l0.2,0.7l0.2,1l0.2,1l0.2,0.9l0.2,0.8l0.2,1
		l0.2,0.9l0.2,1l0.2,1l0.2,1l0.2,0.9l0.2,0.8l0.2,0.9l0.2,1l0.2,1l0.2,1l0.2,0.9l0.2,0.8l0.2,0.9l0.2,1l0.2,1h-31.4L409.6,271.2
		L409.6,271.2z M421.7,176l-1.2,0.2l-0.9,0.2l-0.8,0.2l-0.6,0.2l-0.6,0.2l-0.6,0.2l-0.6,0.2l-0.4,0.2l-0.4,0.2l-0.4,0.2l-0.4,0.2
		l-0.4,0.2l-0.4,0.2l-0.2,0.2l-0.4,0.2l-0.2,0.2l-0.4,0.2l-0.2,0.2l-0.2,0.2l-0.4,0.2L412,180l-0.2,0.2l-0.2,0.2l-0.2,0.2l-0.2,0.2
		l-0.2,0.2l-0.2,0.2l-0.2,0.2l-0.2,0.2l-0.2,0.2l-0.2,0.2l-0.2,0.2l-0.2,0.2l-0.2,0.4l-0.2,0.2l-0.2,0.2l-0.2,0.4l-0.2,0.2l-0.2,0.4
		l-0.2,0.2l-0.2,0.4l-0.2,0.2l-0.2,0.4l-0.2,0.4l-0.2,0.4l-0.2,0.4l-0.2,0.4l-0.2,0.4l-0.2,0.4l-0.2,0.4l-0.2,0.6l-0.2,0.4l-0.2,0.6
		l-0.2,0.4l-0.2,0.4l-0.2,0.6l-0.2,0.4l-0.2,0.4l-0.2,0.5l-0.2,0.4l-0.2,0.6l-0.2,0.4l-0.2,0.4l-0.2,0.6l-0.2,0.4l-0.2,0.6l-0.2,0.4
		l-0.2,0.4l-0.2,0.6l-0.2,0.4l-0.2,0.6l-0.2,0.4l-0.2,0.4l-0.2,0.6l-0.2,0.4l-0.2,0.6l-0.2,0.4l-0.2,0.4l-0.2,0.6l-0.2,0.4l-0.2,0.4
		l-0.2,0.6l-0.2,0.4l-0.2,0.6l-0.2,0.4l-0.2,0.4l-0.2,0.6l-0.2,0.4L399,206l-0.2,0.4l-0.2,0.4l-0.1,0.6l-0.2,0.4l-0.2,0.6l-0.2,0.4
		l-0.2,0.4l-0.2,0.6l-0.2,0.4l-0.2,0.4l-0.2,0.6l-0.2,0.4l-0.2,0.6l-0.2,0.4l-0.2,0.4l-0.2,0.6l-0.2,0.4l-0.2,0.6l-0.2,0.4l-0.2,0.4
		l-0.2,0.6l-0.2,0.4l-0.2,0.6l-0.2,0.4l-0.2,0.4l-0.2,0.6l-0.2,0.4l-0.2,0.4l-0.2,0.6l-0.2,0.4l-0.2,0.6l-0.2,0.4l-0.2,0.4l-0.2,0.6
		l-0.2,0.4l-0.2,0.6l-0.2,0.4l-0.2,0.4l-0.2,0.6l-0.2,0.4l-0.2,0.6l-0.2,0.4l-0.2,0.4l-0.2,0.6l-0.2,0.4l-0.2,0.6l-0.2,0.4l-0.2,0.4
		l-0.2,0.6l-0.2,0.4l-0.2,0.4l-0.2,0.6l-0.2,0.4l-0.2,0.6l-0.2,0.4l-0.2,0.4l-0.2,0.6l-0.2,0.4l-0.2,0.6l-0.2,0.4l-0.2,0.4l-0.2,0.6
		l-0.2,0.4l-0.2,0.6l-0.2,0.4l-0.2,0.4l-0.2,0.6l-0.2,0.4l-0.2,0.4l-0.2,0.6l-0.2,0.4l-0.2,0.6l-0.2,0.4l-0.2,0.4l-0.2,0.6l-0.2,0.4
		l-0.2,0.6l-0.2,0.4l-0.2,0.4l-0.2,0.6l-0.2,0.4l-0.2,0.6L383,244l-0.2,0.4l-0.1,0.6l-0.2,0.4l-0.2,0.4l-0.2,0.5l-0.2,0.4l-0.1,0.6
		l-0.2,0.4l-0.2,0.6l-0.2,0.4l-0.2,0.4l-0.2,0.6l-0.2,0.4l-0.2,0.4l-0.2,0.6l-0.2,0.4l-0.2,0.6l-0.2,0.4l-0.2,0.4l-0.2,0.6l-0.2,0.4
		l-0.2,0.6l-0.2,0.4l-0.1,0.4l-0.2,0.6L378,256l-0.2,0.6l-0.2,0.4l-0.2,0.4l-0.2,0.6l-0.2,0.4l-0.2,0.4l-0.2,0.6l-0.2,0.4l-0.2,0.6
		l-0.2,0.4l-0.2,0.4l-0.2,0.6l-0.2,0.4l-0.2,0.6l-0.1,0.4l-0.2,0.4l-0.2,0.6l-0.2,0.4l-0.2,0.4l-0.2,0.6l-0.2,0.4l-0.2,0.6l-0.2,0.4
		l-0.2,0.4l-0.2,0.6l-0.2,0.4l-0.2,0.6l-0.2,0.4l-0.2,0.4l-0.2,0.6l-0.2,0.4l-0.2,0.6l-0.2,0.4l-0.2,0.4l-0.2,0.6l-0.2,0.4l-0.2,0.5
		l-0.2,0.4l-0.2,0.4l-0.2,0.6l-0.2,0.4l-0.2,0.4l-0.2,0.6l-0.2,0.4l-0.2,0.6l-0.2,0.4l-0.2,0.4l-0.2,0.6l-0.2,0.4l-0.2,0.6l-0.2,0.4
		l-0.2,0.4l-0.2,0.6l-0.2,0.4l-0.2,0.6l-0.2,0.4l-0.2,0.4l-0.2,0.6l-0.2,0.4l-0.2,0.6l-0.2,0.4l-0.2,0.4l-0.2,0.6l-0.2,0.4l-0.2,0.4
		l-0.1,0.6l-0.2,0.4l-0.2,0.6l-0.2,0.4l-0.2,0.4l-0.2,0.6l-0.2,0.4l-0.2,0.6l-0.2,0.4l-0.2,0.4l-0.2,0.6l-0.2,0.4l-0.2,0.6l-0.2,0.4
		l-0.2,0.4l-0.2,0.6l-0.2,0.4l-0.2,0.4l-0.2,0.6l-0.2,0.4l-0.2,0.6l-0.2,0.4l-0.2,0.4l-0.2,0.6l-0.2,0.4l-0.2,0.6l-0.2,0.4l-0.2,0.4
		l-0.2,0.6l-0.2,0.4l-0.2,0.4l-0.2,0.5l-0.2,0.4l-0.2,0.6l-0.2,0.4l-0.2,0.4l-0.2,0.6l-0.2,0.4l-0.2,0.6l-0.2,0.4l-0.2,0.4l-0.2,0.6
		l-0.2,0.4l-0.2,0.6l-0.2,0.4l-0.2,0.4l-0.2,0.6l-0.2,0.4l-0.2,0.5l-0.2,0.4l-0.2,0.4l-0.2,0.6l-0.2,0.4l-0.2,0.6l-0.2,0.4l-0.2,0.4
		l-0.2,0.6l-0.2,0.4l-0.2,0.4l-0.2,0.6l-0.2,0.4l-0.2,0.6l-0.2,0.4l-0.2,0.4l-0.2,0.6l-0.2,0.4l-0.2,0.6l-0.2,0.4l-0.2,0.4l-0.2,0.6
		l-0.2,0.4l-0.2,0.6l-0.2,0.4l-0.2,0.4l-0.2,0.6l-0.2,0.4l-0.2,0.4l-0.2,0.6l-0.2,0.4l-0.2,0.6l-0.2,0.4l-0.2,0.4l-0.2,0.6l-0.2,0.4
		v0.6h40.6l0.2-0.2l0.2-0.6l0.2-0.6l0.2-0.6l0.2-0.4l0.2-0.6l0.2-0.6l0.2-0.6l0.2-0.6l0.2-0.4l0.2-0.6l0.2-0.6l0.2-0.6l0.2-0.6
		l0.2-0.4l0.2-0.6l0.2-0.6l0.2-0.6l0.2-0.4l0.2-0.6l0.2-0.6l0.2-0.6l0.2-0.4l0.2-0.6l0.2-0.6l0.2-0.6l0.2-0.6l0.2-0.4l0.2-0.6
		l0.2-0.6l0.2-0.6l0.2-0.4l0.2-0.6l0.2-0.6l0.2-0.6l0.2-0.4l0.2-0.6l0.2-0.6l0.2-0.6l0.2-0.4l0.2-0.6l0.2-0.6v-0.4l49,0.2l0.2,1
		l0.2,0.8l0.2,0.9l0.2,1l0.2,0.8l0.2,1l0.2,1l0.2,0.8l0.2,1l0.2,0.9l0.2,1l0.2,1l0.2,0.8l0.2,1l0.2,0.9l0.2,1l0.2,0.8l0.2,1.1
		l0.2,0.8l0.2,0.9l0.2,1l0.2,1l0.2,0.8l0.2,0.9l0.2,0.4h35.8v-1.3l-0.2-1l-0.2-1l-0.2-0.9l-0.2-0.8l-0.2-1l-0.2-0.9l-0.2-0.8l-0.2-1
		l-0.2-0.9l-0.2-1l-0.1-1l-0.2-0.7l-0.2-1l-0.2-0.9l-0.2-1l-0.2-1l-0.2-0.8l-0.2-1l-0.2-1l-0.2-1l-0.2-1l-0.2-0.8l-0.2-1l-0.2-1
		l-0.2-1l-0.2-0.7l-0.2-1l-0.2-0.9l-0.2-1l-0.2-1l-0.2-0.8l-0.2-0.9l-0.2-0.9l-0.2-1l-0.2-1l-0.2-0.8l-0.2-1l-0.2-0.9l-0.2-0.8
		l-0.2-1l-0.2-1l-0.2-1l-0.2-0.9l-0.2-1l-0.2-0.7l-0.2-1l-0.2-1l-0.2-1l-0.2-1l-0.1-0.8l-0.2-1l-0.2-1l-0.2-0.7l-0.2-1l-0.2-1
		l-0.2-0.9l-0.2-1l-0.2-0.8l-0.2-1l-0.2-0.9l-0.2-1l-0.2-0.9l-0.2-0.8l-0.2-0.9l-0.2-0.9l-0.2-1l-0.2-1l-0.2-0.8l-0.2-1l-0.2-1
		l-0.2-1l-0.2-0.8l-0.2-1l-0.2-0.9l-0.2-0.9l-0.2-1l-0.2-0.8l-0.2-1l-0.1-1l-0.2-1l-0.2-1l-0.2-0.8l-0.2-1l-0.2-1l-0.2-0.8l-0.2-0.9
		l-0.2-1l-0.2-0.9l-0.2-1l-0.2-0.8l-0.2-1l-0.2-1l-0.2-1l-0.2-0.9l-0.2-0.8l-0.2-1l-0.2-1l-0.2-1l-0.2-0.9l-0.2-0.8l-0.2-1l-0.2-1
		l-0.2-1l-0.2-0.8l-0.2-0.9l-0.2-1l-0.2-0.9l-0.2-1l-0.2-0.8l-0.2-1l-0.2-1l-0.2-1l-0.2-1l-0.2-0.8l-0.2-1l-0.2-1l-0.2-0.8l-0.2-1
		l-0.2-1l-0.2-1l-0.2-1l-0.2-1l-0.2-0.8l-0.2-1l-0.2-1l-0.2-1l-0.2-1L463,206l-0.2-1l-0.2-1l-0.2-0.8l-0.2-1l-0.2-0.9l-0.2-1l-0.2-1
		l-0.2-0.8l-0.2-1l-0.2-1l-0.2-1l-0.2-0.9l-0.2-0.8l-0.2-1l-0.2-1l-0.2-0.9l-0.2-1l-0.2-0.9l-0.2-0.8l-0.2-1l-0.2-0.9l-0.2-0.8
		l-0.2-1l-0.2-1l-0.2-1l-0.2-1l-0.2-0.8l-0.2-1l-0.2-1l-0.2-1l-0.2-1l-0.2-0.8l-0.2-0.8h-33.1L421.7,176z"/>
	<polygon display="inline" fill-rule="evenodd" clip-rule="evenodd" fill="#0A4792" points="314.8,173.3 312.7,173.5 310.9,173.7 
		309.4,173.9 308.2,174.1 307.1,174.3 305.9,174.5 305,174.6 304,174.8 303.1,175 302.3,175.2 301.3,175.4 300.6,175.6 299.8,175.8 
		299.2,176 298.4,176.2 297.7,176.4 297.1,176.6 296.5,176.7 295.9,176.9 295.4,177.1 294.6,177.3 294,177.5 293.7,177.7 293,177.9 
		292.5,178.1 292.1,178.3 291.5,178.5 291,178.7 290.5,178.9 290,179.1 289.6,179.3 289.2,179.5 288.6,179.6 288.3,179.8 287.9,180 
		287.5,180.2 287.1,180.4 286.7,180.6 286.1,180.8 285.8,181 285.4,181.2 285.2,181.4 284.8,181.6 284.4,181.8 284,181.9 
		283.6,182.1 283.2,182.3 282.9,182.5 282.7,182.7 282.3,182.9 281.9,183.1 281.7,183.3 281.3,183.5 280.9,183.7 280.8,183.9 
		280.4,184.1 280,184.3 279.8,184.4 279.6,184.6 279.2,184.8 279,185 278.6,185.2 278.4,185.4 278.1,185.6 277.9,185.8 277.5,186 
		277.3,186.2 277.1,186.4 276.7,186.6 276.6,186.8 276.3,186.9 275.9,187.1 275.7,187.3 275.6,187.5 275.4,187.7 275,187.9 
		274.8,188.1 274.6,188.3 274.4,188.5 274.2,188.7 273.8,188.9 273.6,189.1 273.5,189.3 273.3,189.4 273.1,189.6 272.9,189.8 
		272.7,190 272.5,190.2 272.3,190.4 272.1,190.6 271.7,190.8 271.5,191 271.3,191.2 271.1,191.4 271,191.6 270.7,191.7 270.6,192.1 
		270.4,192.3 270.2,192.5 270,192.7 269.8,192.9 269.6,193.1 269.4,193.3 269.2,193.5 269,193.7 268.8,193.9 268.6,194.1 
		268.5,194.4 268.3,194.6 268.1,194.8 267.9,195 267.7,195.4 267.5,195.6 267.3,195.8 267.1,196 266.9,196.4 266.7,196.6 
		266.5,196.7 266.3,197.1 266.2,197.3 265.9,197.5 265.8,197.9 265.6,198.1 265.4,198.5 265.2,198.7 265,199.1 264.8,199.2 
		264.6,199.6 264.4,200 264.2,200.2 264,200.6 263.8,201 263.6,201.4 263.5,201.6 263.3,201.9 263,202.3 262.9,202.7 262.7,203.1 
		262.5,203.5 262.3,203.9 262.1,204.2 261.9,204.6 261.7,205.2 261.5,205.6 261.3,206 261.1,206.5 261,206.9 260.8,207.5 
		260.6,208.1 260.4,208.7 260.2,209.2 260,209.8 259.8,210.4 259.6,211.2 259.4,211.9 259.2,212.7 259.1,213.7 258.8,214.6 
		258.6,215.8 258.4,217.1 258.3,219.1 258.3,225.8 258.4,227.5 258.6,228.7 258.8,229.6 259.1,230.4 259.2,231.1 259.4,231.9 
		259.6,232.5 259.8,233.1 260,233.7 260.2,234.2 260.4,234.6 260.6,235.2 260.8,235.6 261,236.2 261.1,236.5 261.3,236.9 
		261.5,237.3 261.7,237.7 261.9,238.1 262.1,238.5 262.3,238.9 262.5,239 262.7,239.4 262.9,239.8 263,240 263.3,240.4 263.5,240.8 
		263.6,241 263.8,241.4 264,241.5 264.2,241.9 264.4,242.1 264.6,242.3 264.8,242.7 265,242.9 265.2,243.1 265.4,243.5 265.6,243.6 
		265.8,243.8 265.9,244.2 266.2,244.4 266.3,244.6 266.5,244.8 266.7,245 266.9,245.4 267.1,245.6 267.3,245.8 267.5,246 
		267.7,246.2 267.9,246.3 268.1,246.5 268.3,246.7 268.5,246.9 268.6,247.1 268.8,247.3 269,247.5 269.2,247.7 269.4,247.9 
		269.6,248.1 269.8,248.3 270,248.4 270.2,248.6 270.4,248.8 270.6,249 270.7,249.2 271,249.4 271.1,249.6 271.3,249.8 271.5,250 
		271.7,250.2 272.1,250.4 272.3,250.6 272.5,250.8 272.7,251 272.9,251.1 273.1,251.3 273.5,251.5 273.6,251.7 273.8,251.9 
		274.1,252.1 274.4,252.3 274.6,252.5 274.8,252.7 275,252.9 275.4,253.1 275.6,253.3 275.7,253.4 276.1,253.7 276.3,253.8 
		276.6,254 276.9,254.2 277.1,254.4 277.5,254.6 277.7,254.8 278.1,255 278.3,255.2 278.4,255.4 278.8,255.6 279,255.8 279.4,256 
		279.6,256.2 280,256.3 280.4,256.5 280.6,256.7 280.9,256.9 281.1,257.1 281.5,257.3 281.9,257.5 282.1,257.7 282.5,257.9 
		282.7,258.1 283.1,258.3 283.4,258.4 283.8,258.6 284,258.8 284.4,259 284.8,259.2 285.2,259.4 285.4,259.6 285.8,259.8 286.1,260 
		286.5,260.2 286.9,260.4 287.3,260.6 287.5,260.8 287.9,261 288.3,261.1 288.6,261.3 289,261.5 289.4,261.7 289.8,261.9 
		290.2,262.1 290.5,262.3 291,262.5 291.4,262.7 291.7,262.9 292.1,263.1 292.5,263.3 292.9,263.4 293.2,263.7 293.7,263.9 294,264 
		294.4,264.2 294.8,264.4 295.2,264.6 295.6,264.8 295.9,265 296.3,265.2 296.7,265.4 297.1,265.6 297.3,265.7 297.7,266 
		298.1,266.1 298.4,266.3 298.8,266.5 299.2,266.7 299.4,266.9 299.8,267.1 300.2,267.3 300.6,267.5 300.7,267.7 301.1,267.9 
		301.5,268.1 301.7,268.2 302.1,268.5 302.5,268.6 302.7,268.9 303.1,269 303.2,269.2 303.6,269.4 303.9,269.6 304.2,269.8 
		304.4,270 304.8,270.2 305,270.4 305.2,270.6 305.6,270.7 305.8,270.9 305.9,271.2 306.1,271.3 306.5,271.5 306.7,271.7 
		306.9,271.9 307.1,272.1 307.3,272.3 307.5,272.5 307.7,272.7 308.1,272.9 308.2,273 308.4,273.5 308.6,273.6 308.8,273.8 309,274 
		309.2,274.2 309.4,274.4 309.6,274.8 309.8,275 310,275.2 310.2,275.6 310.4,276 310.6,276.2 310.7,276.5 310.9,277.1 311.1,277.5 
		311.3,278.1 311.5,278.8 311.7,280 311.7,282.3 311.5,283.6 311.3,284.4 311.1,285 310.9,285.4 310.7,286 310.6,286.3 310.4,286.7 
		310.2,286.9 310,287.3 309.8,287.5 309.6,287.9 309.4,288 309.2,288.2 309,288.6 308.8,288.8 308.6,289 308.4,289.2 308.2,289.4 
		308.1,289.6 307.9,289.8 307.7,290 307.3,290.2 307.1,290.4 306.9,290.6 306.7,290.8 306.3,290.9 306.1,291.1 305.8,291.3 
		305.4,291.5 305.2,291.7 304.8,291.9 304.4,292.1 304,292.3 303.9,292.5 303.2,292.7 302.8,292.9 302.5,293.1 302.1,293.3 
		301.5,293.5 301,293.6 300.4,293.8 299.8,294 299.2,294.2 298.4,294.4 297.7,294.6 296.9,294.8 295.7,295 294.6,295.1 293,295.4 
		290.4,295.5 286.3,295.5 281.7,295.4 279,295.1 277.3,295 275.6,294.8 274.2,294.6 273.1,294.4 272.1,294.2 271.1,294 270.2,293.8 
		269.4,293.6 268.5,293.5 267.9,293.3 267.1,293.1 266.3,292.9 265.8,292.7 265.2,292.5 264.4,292.3 263.8,292.1 263.3,291.9 
		262.7,291.7 262.1,291.5 261.7,291.3 261.1,291.1 260.6,290.9 260,290.8 259.6,290.6 259.1,290.4 258.6,290.2 258.1,290 
		257.5,289.8 257.1,289.6 256.7,289.4 256.1,289.2 255.8,289 255.2,288.8 254.8,288.6 254.4,288.4 253.8,288.2 253.5,288 
		253.1,287.9 252.7,287.7 252.3,287.5 251.8,287.3 251.3,287.1 251,286.9 250.6,286.7 250.2,286.5 249.8,286.3 249.4,286.1 
		249.1,286 248.7,285.8 248.2,285.6 247.7,285.6 247.5,286.1 247.3,287.3 247.1,288.4 246.9,289.6 246.7,290.9 246.5,292.1 
		246.3,293.3 246.2,294.4 246,295.8 245.8,296.9 245.6,298 245.4,299.2 245.2,300.4 245,301.7 244.8,302.9 244.6,304 244.4,305.2 
		244.2,306.3 244,307.5 243.8,308.8 243.6,310 243.5,311.1 243.3,312.3 243.1,313.4 242.9,314.6 242.7,315.9 242.5,317.1 
		242.3,318.3 242.3,319.2 242.9,319.4 243.3,319.6 243.6,319.8 244.2,320 244.6,320.2 245.2,320.3 245.6,320.5 246.2,320.8 
		246.7,320.9 247.3,321.1 247.7,321.3 248.4,321.5 249.1,321.7 249.6,321.9 250.2,322.1 250.8,322.2 251.5,322.5 252.1,322.7 
		252.9,322.9 253.6,323.1 254.4,323.3 255.2,323.4 255.9,323.6 256.7,323.8 257.7,324 258.4,324.2 259.4,324.4 260.4,324.6 
		261.3,324.8 262.3,325 263.5,325.2 264.6,325.3 265.9,325.6 267.1,325.7 268.5,325.9 270,326.1 271.7,326.3 273.5,326.5 
		275.7,326.7 278.6,326.9 292.9,326.9 295.4,326.7 297.5,326.5 299.2,326.3 300.6,326.1 301.9,325.9 303.1,325.7 304,325.6 
		305.2,325.3 306.1,325.2 307.1,325 307.9,324.8 308.8,324.6 309.6,324.4 310.4,324.2 311.1,324 311.9,323.8 312.5,323.6 
		313.3,323.4 313.8,323.3 314.4,323.1 315,322.9 315.6,322.7 316.1,322.5 316.7,322.2 317.3,322.1 317.8,321.9 318.3,321.7 
		318.8,321.5 319.4,321.3 319.8,321.1 320.4,320.9 320.7,320.8 321.1,320.5 321.7,320.3 322.1,320.2 322.5,320 322.9,319.8 
		323.4,319.6 323.8,319.4 324.2,319.2 324.6,319 325,318.8 325.4,318.6 325.7,318.4 326.1,318.3 326.5,318 326.7,317.9 327.1,317.7 
		327.5,317.5 327.8,317.3 328,317.1 328.4,316.9 328.8,316.7 329.2,316.5 329.4,316.3 329.8,316.1 330,315.9 330.4,315.7 
		330.5,315.5 331,315.4 331.3,315.2 331.5,315 331.7,314.8 332.1,314.6 332.3,314.4 332.7,314.2 332.9,314 333,313.8 333.4,313.6 
		333.6,313.4 334,313.3 334.2,313.1 334.4,312.8 334.6,312.7 335,312.5 335.1,312.3 335.4,312.1 335.6,311.9 335.9,311.7 
		336.1,311.5 336.3,311.3 336.5,311.1 336.7,310.9 336.9,310.8 337.1,310.5 337.5,310.3 337.6,310.2 337.9,310 338,309.8 
		338.2,309.6 338.4,309.4 338.6,309.2 338.8,309 339,308.8 339.2,308.6 339.4,308.4 339.6,308.2 339.8,308.1 340,307.9 340.2,307.7 
		340.3,307.5 340.5,307.3 340.7,306.9 340.9,306.7 341.1,306.5 341.3,306.3 341.5,306.1 341.7,305.9 341.9,305.7 342.1,305.4 
		342.3,305.2 342.5,305 342.7,304.8 342.9,304.4 343,304.2 343.2,304 343.4,303.8 343.6,303.4 343.8,303.3 344,302.9 344.2,302.7 
		344.4,302.5 344.6,302.1 344.8,301.9 344.9,301.5 345.1,301.3 345.3,300.9 345.5,300.7 345.7,300.4 345.9,300 346.1,299.8 
		346.3,299.4 346.5,299 346.7,298.6 346.9,298.4 347.1,298 347.3,297.7 347.5,297.3 347.7,296.9 347.8,296.5 348,296.1 348.2,295.8 
		348.4,295.1 348.6,294.8 348.8,294.4 349,293.8 349.2,293.5 349.4,292.9 349.6,292.5 349.8,291.9 350,291.3 350.2,290.8 
		350.4,290.2 350.5,289.6 350.7,288.8 350.9,288 351.1,287.3 351.3,286.5 351.5,285.6 351.7,284.6 351.9,283.4 352.1,282.1 
		352.3,280.4 352.5,276.7 352.5,274.6 352.3,271.5 352.1,270 351.9,268.9 351.7,267.9 351.5,267.1 351.3,266.3 351.1,265.6 
		350.9,265 350.7,264.4 350.5,263.9 350.4,263.3 350.2,262.7 350,262.3 349.8,261.7 349.6,261.3 349.4,261 349.2,260.6 349,260.2 
		348.8,259.8 348.6,259.4 348.4,259 348.2,258.6 348,258.3 347.8,257.9 347.7,257.7 347.5,257.3 347.3,256.9 347.1,256.7 
		346.9,256.3 346.7,256.2 346.5,255.8 346.3,255.6 346.1,255.2 345.9,255 345.7,254.8 345.5,254.4 345.3,254.2 345.1,253.8 
		344.9,253.7 344.8,253.4 344.6,253.3 344.4,252.9 344.2,252.7 344,252.5 343.8,252.3 343.6,252.1 343.4,251.9 343.2,251.5 
		343,251.3 342.9,251.1 342.7,251 342.5,250.8 342.3,250.6 342.1,250.4 341.9,250.2 341.7,250 341.5,249.8 341.3,249.6 341.1,249.4 
		340.9,249.2 340.7,249 340.5,248.8 340.3,248.6 340.2,248.4 340,248.3 339.8,248.1 339.6,247.9 339.4,247.7 339,247.5 338.8,247.3 
		338.6,247.1 338.4,246.9 338.2,246.7 338,246.5 337.9,246.3 337.5,246.2 337.3,246 337.1,245.8 336.9,245.6 336.5,245.4 
		336.3,245.2 336.1,245 335.9,244.8 335.6,244.6 335.4,244.4 335.1,244.2 334.7,244 334.6,243.8 334.2,243.6 334,243.5 333.8,243.3 
		333.4,243.1 333.2,242.9 332.9,242.7 332.7,242.5 332.3,242.3 332.1,242.1 331.7,241.9 331.5,241.7 331.1,241.5 331,241.4 
		330.5,241.2 330.4,241 330,240.8 329.8,240.6 329.4,240.4 329,240.2 328.8,240 328.4,239.8 328,239.6 327.8,239.4 327.5,239.2 
		327.1,239 326.7,238.9 326.3,238.7 326.1,238.5 325.7,238.3 325.4,238.1 325,237.9 324.6,237.7 324.4,237.5 324,237.3 323.6,237.1 
		323.2,236.9 322.9,236.7 322.5,236.5 322.1,236.3 321.7,236.2 321.3,236 320.9,235.8 320.5,235.6 320.2,235.4 319.8,235.2 
		319.4,235 319,234.8 318.6,234.6 318.3,234.4 317.8,234.2 317.5,234 317.1,233.9 316.7,233.7 316.3,233.5 315.9,233.3 315.6,233.1 
		315.4,232.9 315,232.7 314.6,232.5 314.2,232.3 313.8,232.1 313.4,231.9 313,231.7 312.9,231.5 312.5,231.4 312.1,231.1 311.7,231 
		311.3,230.8 311.1,230.6 310.7,230.4 310.4,230.2 310,230 309.8,229.8 309.4,229.6 309,229.4 308.8,229.2 308.4,229 308.1,228.8 
		307.9,228.7 307.5,228.5 307.3,228.3 306.9,228.1 306.5,227.9 306.3,227.7 305.9,227.5 305.8,227.3 305.6,227.1 305.2,226.9 
		305,226.7 304.6,226.5 304.4,226.4 304.2,226.1 304,226 303.6,225.8 303.4,225.6 303.2,225.4 303.1,225.2 302.7,225 302.5,224.8 
		302.3,224.6 302.1,224.4 301.9,224.2 301.7,224 301.5,223.9 301.3,223.7 301.1,223.5 301,223.1 300.7,222.9 300.6,222.7 
		300.4,222.3 300.2,222.1 300,221.7 299.8,221.5 299.6,221.2 299.4,220.8 299.2,220.4 299,219.8 298.8,219.2 298.6,218.1 
		298.6,216.2 298.8,215.2 299,214.4 299.2,213.9 299.4,213.5 299.6,213.1 299.8,212.7 300,212.5 300.2,212.1 300.4,211.7 
		300.6,211.6 300.7,211.4 301,211.2 301.1,210.8 301.3,210.6 301.5,210.4 301.7,210.2 301.9,210 302.1,209.8 302.5,209.6 
		302.7,209.4 302.8,209.2 303.1,209.1 303.4,208.8 303.6,208.7 304,208.5 304.2,208.3 304.6,208.1 305,207.9 305.2,207.7 
		305.6,207.5 305.9,207.3 306.3,207.1 306.9,206.9 307.3,206.7 307.7,206.5 308.2,206.4 308.8,206.2 309.4,206 310.2,205.8 
		310.7,205.6 311.7,205.4 312.5,205.2 313.6,205 315.2,204.8 317.1,204.6 325.9,204.6 328.4,204.8 330.2,205 331.7,205.2 333,205.4 
		334,205.6 335,205.8 335.9,206 336.7,206.2 337.6,206.4 338.4,206.5 339.2,206.7 339.8,206.9 340.5,207.1 341.1,207.3 341.9,207.5 
		342.5,207.7 343,207.9 343.6,208.1 344.2,208.3 344.6,208.5 345.1,208.7 345.7,208.8 346.3,209.1 346.7,209.2 347.3,209.4 
		347.7,209.6 348.2,209.8 348.6,210 349,210.2 349.4,210.4 349.8,210.6 350.2,210.8 350.7,211 351.1,211.2 351.5,211.4 351.9,211.6 
		352.3,211.7 352.9,211.7 353,210.6 353.2,209.4 353.4,208.3 353.6,206.9 353.8,205.8 354,204.6 354.2,203.5 354.4,202.3 
		354.6,201.2 354.8,199.8 355,198.7 355.2,197.5 355.3,196.4 355.5,195.2 355.7,194.1 355.9,192.7 356.1,191.6 356.3,190.2 
		356.5,189.1 356.7,187.9 356.9,186.8 357.1,185.6 357.3,184.4 357.5,183.1 357.6,181.9 357.8,180.8 358,179.6 358,179.3 
		357.6,179.1 357.1,178.9 356.5,178.7 356.1,178.5 355.5,178.3 355,178.1 354.4,177.9 353.8,177.7 353.2,177.5 352.6,177.3 
		352.1,177.1 351.3,176.9 350.7,176.7 350.2,176.6 349.4,176.4 348.6,176.2 347.8,176 347.1,175.8 346.3,175.6 345.5,175.4 
		344.8,175.2 343.8,175 342.9,174.8 341.9,174.6 340.7,174.5 339.8,174.3 338.4,174.1 337.3,173.9 335.7,173.7 334,173.5 
		331.9,173.3 329.2,173.1 317.5,173.1 	"/>
	<path display="inline" fill-rule="evenodd" clip-rule="evenodd" fill="#0A4792" d="M147.4,176l-0.2,0.6l-0.2,0.4l-0.2,0.6l-0.2,0.6
		l-0.2,0.4l-0.2,0.6l-0.2,0.6l-0.2,0.4l-0.2,0.6l-0.2,0.6l-0.2,0.6l-0.2,0.4l-0.2,0.6l-0.2,0.6l-0.2,0.4l-0.2,0.6l-0.2,0.6l-0.2,0.4
		l-0.2,0.6l-0.2,0.6l-0.2,0.4l-0.2,0.6l-0.2,0.6l-0.2,0.6l-0.2,0.4l-0.2,0.6l-0.2,0.6l-0.2,0.4l-0.2,0.6l-0.2,0.6l-0.2,0.5l-0.2,0.4
		l-0.2,0.6l-0.2,0.6l-0.2,0.4l-0.2,0.6l-0.2,0.6l-0.2,0.4l-0.2,0.6l-0.2,0.6l-0.2,0.4l-0.2,0.6l-0.2,0.6l-0.2,0.6l-0.2,0.4l-0.2,0.6
		l-0.2,0.6l-0.2,0.4l-0.2,0.6l-0.2,0.6l-0.2,0.4l-0.2,0.6l-0.2,0.6l-0.2,0.6l-0.2,0.4l-0.2,0.6l-0.2,0.6l-0.2,0.4l-0.2,0.6l-0.2,0.6
		l-0.2,0.4l-0.2,0.6l-0.2,0.6l-0.2,0.6l-0.2,0.4l-0.2,0.6l-0.2,0.5l-0.2,0.4l-0.2,0.6l-0.2,0.6l-0.2,0.4l-0.2,0.6l-0.2,0.6l-0.2,0.4
		l-0.2,0.6l-0.2,0.6l-0.2,0.6l-0.2,0.4l-0.2,0.6l-0.2,0.6l-0.2,0.4l-0.2,0.6l-0.2,0.6l-0.2,0.6L131,220l-0.2,0.6l-0.2,0.6l-0.2,0.4
		l-0.2,0.6l-0.2,0.6l-0.2,0.4l-0.2,0.6l-0.2,0.6l-0.2,0.4l-0.2,0.6l-0.2,0.6l-0.2,0.6l-0.2,0.4l-0.2,0.6l-0.2,0.6l-0.2,0.4l-0.2,0.6
		l-0.2,0.6l-0.2,0.4l-0.2,0.6L127,231l-0.2,0.4l-0.2,0.6l-0.2,0.6l-0.2,0.6l-0.2,0.4l-0.2,0.6l-0.2,0.6l-0.2,0.4l-0.2,0.6l-0.2,0.6
		l-0.2,0.6l-0.2,0.4l-0.2,0.6l-0.2,0.6l-0.2,0.4l-0.2,0.6l-0.2,0.6l-0.2,0.4l-0.2,0.6l-0.2,0.6l-0.2,0.4l-0.2,0.6l-0.2,0.6l-0.2,0.6
		l-0.2,0.4l-0.2,0.6l-0.2,0.6l-0.2,0.4l-0.1,0.6l-0.2,0.6l-0.2,0.4l-0.2,0.6l-0.2,0.6l-0.2,0.4l-0.2,0.6l-0.2,0.6l-0.2,0.6l-0.2,0.4
		l-0.2,0.6l-0.2,0.6l-0.2,0.4l-0.2,0.6l-0.2,0.6l-0.2,0.6l-0.2,0.4l-0.2,0.6l-0.2,0.6l-0.2,0.4l-0.2,0.6l-0.2,0.6l-0.2,0.4l-0.2,0.6
		l-0.2,0.6l-0.2,0.4l-0.2,0.6l-0.2,0.5l-0.2,0.6l-0.2,0.4l-0.2,0.6l-0.2,0.6l-0.2,0.4l-0.2,0.6l-0.2,0.6l-0.2,0.4l-0.2,0.6l-0.2,0.6
		l-0.2,0.6l-0.2,0.4l-0.2,0.6l-0.2,0.6l-0.2,0.4l-0.2,0.6l-0.2,0.6l-0.2,0.4l-0.2,0.6l-0.2,0.6l-0.2,0.6l-0.2,0.4l-0.2,0.6l-0.2,0.6
		l-0.2,0.4l-0.2,0.6L111,274l-0.2,0.4l-0.2,0.6l-0.2,0.6l-0.2,0.6l-0.2,0.4l-0.2-0.9l-0.2-0.9l-0.2-1l-0.2-0.9l-0.2-1l-0.2-1l-0.2-1
		l-0.2-0.9l-0.2-1.2l-0.2-1l-0.2-1l-0.2-0.9l-0.2-0.9l-0.2-1l-0.2-1.2l-0.2-1l-0.2-1l-0.2-1l-0.2-1l-0.2-1l-0.2-0.2
		c-0.2-0.3-3.8-8.8-4.4-10c-1.7-3.3-3.2-6.2-5.1-9.4c-3.5-6.1-7.8-11.2-12.2-16.4c-7.5-9-20.8-20-31.6-25.7v0.4l0.2,0.8l0.2,0.6
		l0.2,0.8l0.2,0.8l0.2,0.7l0.2,0.8l0.2,0.6l0.2,0.8l0.2,0.8l0.2,0.8l0.2,0.6l0.2,0.8l0.2,0.8l0.2,0.8l0.2,0.8l0.2,0.6l0.2,0.8
		l0.2,0.8l0.2,0.8l0.2,0.8l0.2,0.5l0.2,0.8l0.2,0.8l0.2,0.8l0.2,0.6l0.2,0.8l0.2,0.8l0.2,0.8l0.2,0.7l0.2,0.6l0.2,0.8l0.2,0.8
		l0.2,0.8l0.2,0.8l0.2,0.6l0.2,0.8l0.2,0.8l0.2,0.8l0.2,0.6l0.2,0.7l0.2,0.8l0.2,0.8l0.2,0.6l0.2,0.8l0.2,0.8l0.2,0.8l0.2,0.8
		l0.2,0.6l0.2,0.8l0.2,0.8l0.2,0.8l0.2,0.8L63,234l0.2,0.8l0.2,0.8l0.2,0.8l0.2,0.6l0.2,0.7l0.2,0.8l0.2,0.8l0.2,0.8l0.2,0.6
		l0.2,0.8l0.2,0.7l0.2,0.8l0.2,0.8l0.2,0.6l0.2,0.8l0.2,0.8l0.2,0.8l0.2,0.6l0.2,0.8l0.2,0.8l0.2,0.8l0.2,0.8l0.2,0.6l0.2,0.8
		l0.2,0.8l0.2,0.7l0.2,0.8l0.2,0.6l0.2,0.7l0.2,0.8l0.2,0.8l0.2,0.7l0.2,0.6l0.2,0.8l0.2,0.8l0.2,0.6l0.2,0.8l0.2,0.8l0.2,0.8
		l0.2,0.8l0.2,0.6l0.2,0.8l0.2,0.8l0.2,0.8l0.2,0.8l0.2,0.6l0.2,0.8l0.2,0.8l0.2,0.7l0.2,0.6l0.2,0.8l0.2,0.7l0.2,0.8l0.2,0.8
		l0.2,0.6l0.2,0.8l0.2,0.8l0.2,0.8l0.2,0.8l0.2,0.6l0.2,0.8l0.2,0.8l0.2,0.8l0.2,0.8l0.2,0.6l0.2,0.8l0.2,0.8l0.2,0.8l0.2,0.6
		l0.2,0.8l0.2,0.8l0.2,0.7l0.2,0.8l0.2,0.6l0.2,0.8l0.2,0.7l0.2,0.8l0.2,0.8l0.2,0.6l0.2,0.8l0.2,0.8l0.2,0.8l0.2,0.6l0.2,0.7
		l0.2,0.8l0.2,0.8l0.2,0.6l0.2,0.8l0.2,0.8l0.2,0.8l0.2,0.8l0.2,0.6l0.2,0.8l0.2,0.8l0.2,0.8l0.2,0.6l0.2,0.8l0.2,0.8l0.2,0.8
		l0.2,0.8l0.2,0.6l0.2,0.8l0.2,0.8l0.2,0.8l0.2,0.8l0.2,0.6l0.2,0.8l0.2,0.8l0.2,0.7l0.2,0.8l0.2,0.6l0.2,0.8l0.2,0.8l0.2,0.8
		l0.2,0.6l0.2,0.8l0.2,0.7l0.2,0.8l0.2,0.8l0.2,0.6l0.2,0.8l0.2,0.8l0.2,0.8l0.2,0.7l0.2,0.4h31.5l9.4-0.2l0.2-0.2l0.2-0.6l0.2-0.4
		l0.2-0.6l0.2-0.4l0.2-0.4l0.2-0.6l0.2-0.4l0.2-0.6l0.2-0.4l0.2-0.6l0.2-0.4l0.2-0.6l0.2-0.4l0.2-0.4l0.2-0.6l0.2-0.4l0.2-0.6
		l0.2-0.4l0.2-0.6l0.2-0.4l0.2-0.5l0.2-0.4l0.2-0.6l0.2-0.4l0.2-0.4l0.2-0.6l0.2-0.4l0.2-0.6l0.2-0.4l0.2-0.6l0.2-0.4l0.2-0.6
		l0.2-0.4l0.2-0.6l0.2-0.4l0.2-0.4l0.2-0.6l0.2-0.4l0.2-0.6l0.2-0.4l0.2-0.6l0.2-0.4l0.2-0.6l0.2-0.4l0.2-0.6l0.2-0.4l0.2-0.6
		l0.2-0.4l0.2-0.4l0.2-0.6l0.2-0.4l0.2-0.6l0.2-0.4l0.2-0.6l0.2-0.4l0.2-0.6l0.2-0.4l0.2-0.4l0.2-0.6l0.2-0.4l0.2-0.6l0.2-0.4
		l0.2-0.6l0.2-0.4l0.2-0.6l0.2-0.4l0.2-0.6l0.2-0.4l0.2-0.4l0.2-0.6l0.2-0.4l0.2-0.6l0.2-0.4l0.2-0.6l0.2-0.4l0.2-0.6l0.2-0.4
		l0.2-0.6l0.2-0.4l0.2-0.6l0.2-0.4l0.2-0.4l0.2-0.6l0.2-0.4l0.2-0.6l0.2-0.4l0.2-0.6l0.2-0.4l0.2-0.6l0.2-0.4l0.2-0.4l0.2-0.6
		l0.2-0.4l0.2-0.6l0.2-0.4l0.2-0.6l0.2-0.4l0.2-0.6l0.2-0.4l0.2-0.6l0.2-0.4l0.2-0.4l0.2-0.6l0.2-0.4l0.2-0.6l0.2-0.4l0.2-0.6
		l0.2-0.4l0.2-0.6l0.2-0.4l0.2-0.6l0.2-0.4l0.2-0.6l0.2-0.4l0.2-0.4l0.2-0.6l0.2-0.4l0.2-0.6l0.2-0.4l0.2-0.6l0.2-0.4l0.2-0.6
		l0.2-0.4l0.2-0.4l0.2-0.6l0.2-0.4l0.2-0.6l0.2-0.4l0.2-0.6l0.2-0.4l0.2-0.6l0.2-0.4l0.2-0.6l0.2-0.4l0.2-0.4l0.2-0.6l0.2-0.4
		l0.2-0.6l0.2-0.4l0.2-0.6l0.2-0.4l0.2-0.6l0.2-0.4l0.2-0.6l0.2-0.4l0.2-0.6l0.2-0.4l0.2-0.4l0.2-0.6l0.2-0.4l0.2-0.6l0.2-0.4
		l0.2-0.6l0.2-0.4l0.2-0.6l0.2-0.4l0.2-0.6l0.2-0.4l0.2-0.4l0.2-0.6l0.2-0.4l0.2-0.6l0.2-0.4l0.2-0.6l0.2-0.4l0.2-0.6l0.2-0.4
		l0.2-0.4l0.2-0.6l0.2-0.4l0.2-0.6l0.2-0.4l0.2-0.6l0.2-0.4l0.2-0.6l0.2-0.4l0.2-0.6l0.2-0.4l0.2-0.4l0.2-0.6l0.2-0.4l0.2-0.6
		l0.2-0.4l0.2-0.6l0.2-0.4l0.2-0.6l0.2-0.4l0.2-0.6l0.2-0.4l0.2-0.6l0.2-0.4l0.2-0.4l0.2-0.6l0.2-0.4l0.2-0.6l0.2-0.4l0.2-0.6
		l0.2-0.4l0.2-0.6l0.2-0.4l0.2-0.4l0.2-0.6l0.2-0.4l0.2-0.6l0.2-0.4l0.2-0.6l0.2-0.4l0.2-0.6l0.2-0.4l0.2-0.6l0.2-0.4l0.2-0.6
		l0.2-0.4l0.2-0.4l0.2-0.6l0.2-0.4l0.2-0.6l0.2-0.4l0.2-0.6l0.2-0.4l0.2-0.6l0.2-0.4l0.2-0.6l0.2-0.4l0.2-0.4l0.2-0.6l0.2-0.4
		l0.2-0.6l0.2-0.4l0.2-0.6l0.2-0.4l0.2-0.6l0.2-0.4l0.2-0.4l0.2-0.6l0.2-0.4l0.2-0.6l0.2-0.4l0.2-0.6l0.2-0.4l0.2-0.6l0.2-0.4
		l0.2-0.6l0.2-0.4l0.2-0.4l0.2-0.6l0.2-0.4l0.2-0.6l0.2-0.4l0.2-0.6l0.2-0.4l0.2-0.6l0.2-0.4l0.2-0.6l0.2-0.4l0.2-0.6l0.2-0.4
		l0.2-0.4l0.2-0.6l0.2-0.4l0.2-0.6l0.2-0.4l0.2-0.6l0.2-0.4l0.2-0.6l0.2-0.4l0.2-0.4l0.2-0.6l0.2-0.4l0.2-0.6l0.2-0.4l0.2-0.6
		l0.2-0.4l0.2-0.6l0.2-0.4l0.2-0.6l0.2-0.4l0.2-0.4l0.2-0.6l0.2-0.4l0.2-0.6l0.2-0.4l0.2-0.6l0.2-0.4l0.2-0.6l0.2-0.4l0.2-0.6
		l0.2-0.4l0.2-0.6l0.2-0.4l0.2-0.4l0.2-0.6l0.2-0.4l0.2-0.6l0.2-0.4l0.2-0.6l0.2-0.4l0.2-0.6l0.2-0.4l0.2-0.4l0.2-0.6l0.2-0.4
		l0.2-0.6l0.2-0.4l0.2-0.6l0.2-0.4l0.2-0.6l0.2-0.4l0.2-0.6l0.2-0.4l0.2-0.4l0.2-0.6l0.2-0.4l0.2-0.6v-0.4h-41L147.4,176z"/>
	<polygon display="inline" fill-rule="evenodd" clip-rule="evenodd" fill="#0A4792" points="203.7,176 203.5,177.1 203.3,178.3 
		203.1,179.5 202.9,180.6 202.7,181.9 202.5,183.1 202.3,184.3 202.1,185.4 201.9,186.6 201.7,187.7 201.6,189.1 201.4,190.2 
		201.2,191.4 201,192.5 200.8,193.9 200.6,195 200.4,196.2 200.2,197.3 200,198.7 199.8,199.8 199.7,201 199.5,202.1 199.3,203.3 
		199.1,204.4 198.8,205.8 198.7,206.9 198.5,208.1 198.3,209.2 198.1,210.4 197.9,211.6 197.7,212.9 197.5,214.1 197.3,215.2 
		197.1,216.3 197,217.5 196.7,218.7 196.6,220 196.4,221.2 196.2,222.3 196,223.5 195.8,224.8 195.6,226 195.4,227.1 195.2,228.3 
		195,229.6 194.8,230.8 194.6,231.9 194.4,233.1 194.2,234.2 194.1,235.4 193.9,236.7 193.7,237.9 193.5,239 193.3,240.2 
		193.1,241.4 192.9,242.5 192.7,243.8 192.5,245 192.3,246.2 192.1,247.3 191.9,248.4 191.8,249.6 191.6,251 191.4,252.1 
		191.2,253.3 191,254.4 190.8,255.6 190.6,256.9 190.4,258.1 190.2,259.2 190,260.6 189.8,261.7 189.6,262.9 189.5,264 189.2,265.2 
		189,266.3 188.9,267.7 188.7,268.9 188.5,270 188.3,271.2 188.1,272.3 187.9,273.5 187.7,274.8 187.6,276 187.3,277.1 187.1,278.3 
		187,279.4 186.7,280.6 186.6,281.9 186.3,283 186.2,284.2 186,285.4 185.8,286.5 185.6,287.9 185.4,289 185.2,290.2 185,291.5 
		184.8,292.7 184.6,293.8 184.5,295 184.2,296.1 184,297.3 183.9,298.6 183.7,299.8 183.5,300.9 183.3,302.1 183.1,303.3 
		182.9,304.4 182.7,305.7 182.5,306.9 182.4,308.1 182.1,309.2 182,310.3 181.8,311.5 181.6,312.8 181.4,314 181.2,315.2 181,316.3 
		180.8,317.5 180.6,318.8 180.4,320 180.2,321.1 180,322.5 179.8,323.6 179.8,324.8 218.5,324.8 218.7,324 218.9,322.9 219.1,321.7 
		219.3,320.5 219.4,319.4 219.6,318.3 219.8,316.9 220,315.7 220.2,314.6 220.4,313.4 220.6,312.3 220.8,311.1 221,309.8 
		221.2,308.6 221.4,307.5 221.6,306.3 221.7,305.2 221.9,304 222.1,302.7 222.3,301.5 222.5,300.4 222.7,299.2 222.9,298 
		223.1,296.7 223.3,295.5 223.5,294.4 223.7,293.1 223.9,291.9 224,290.8 224.3,289.6 224.4,288.4 224.6,287.3 224.8,286 225,284.8 
		225.2,283.6 225.4,282.5 225.6,281.3 225.8,280.2 226,278.8 226.2,277.7 226.3,276.5 226.5,275.4 226.7,274.2 226.9,273 
		227.2,271.7 227.3,270.6 227.5,269.4 227.7,268.2 227.9,267.1 228.1,265.7 228.3,264.6 228.5,263.4 228.7,262.1 228.8,261 
		229,259.8 229.3,258.6 229.4,257.5 229.6,256.3 229.8,255 230,253.8 230.2,252.7 230.4,251.5 230.6,250.4 230.8,249.2 230.9,248.1 
		231.1,246.7 231.4,245.6 231.5,244.4 231.7,243.3 231.9,242.1 232.1,241 232.3,239.6 232.5,238.5 232.7,237.3 232.9,236.2 
		233.1,235 233.3,233.7 233.5,232.5 233.7,231.4 233.8,230 234,228.8 234.2,227.7 234.4,226.5 234.6,225.4 234.8,224 235,222.9 
		235.2,221.7 235.4,220.6 235.6,219.4 235.8,218.3 236,217.1 236.1,215.8 236.4,214.6 236.5,213.5 236.7,212.3 236.9,211.2 
		237.1,210 237.3,208.7 237.5,207.5 237.7,206.4 237.9,205.2 238.1,204.1 238.3,202.7 238.5,201.6 238.7,200.4 238.8,199.1 
		239,197.9 239.3,196.7 239.4,195.6 239.6,194.4 239.8,193.1 240,191.9 240.2,190.8 240.4,189.6 240.6,188.5 240.8,187.3 241,186.2 
		241.1,184.8 241.3,183.7 241.6,182.5 241.7,181.4 241.9,180.2 242.1,179.1 242.3,177.7 242.5,176.6 242.5,175.6 203.9,175.6 	"/>
	<path display="inline" fill-rule="evenodd" clip-rule="evenodd" fill="#F1AD15" d="M12.8,175.8l-0.2,1.2l-0.2,1.2v1l0.8,0.2
		l0.6,0.2l0.8,0.2l0.8,0.2l0.6,0.2l0.8,0.2l0.8,0.2l0.6,0.2l0.6,0.2l0.8,0.2l0.6,0.2l0.6,0.2l0.8,0.2l0.6,0.2l0.6,0.2l0.6,0.2
		l0.6,0.2l0.6,0.2l0.6,0.2l0.6,0.2l0.6,0.2l0.6,0.2l0.4,0.2l0.6,0.2l0.6,0.2l0.6,0.2l0.6,0.2l0.4,0.2l0.6,0.2l0.6,0.2l0.4,0.2
		l0.6,0.2l0.4,0.2l0.6,0.2l0.5,0.2l0.4,0.2l0.4,0.2l0.6,0.2l0.4,0.2l0.5,0.2l0.4,0.2l0.4,0.2l0.6,0.2l0.4,0.2l0.4,0.2l0.6,0.2
		l0.4,0.2l0.4,0.2l0.4,0.2l0.6,0.2l0.4,0.2l0.4,0.2l0.4,0.2l0.4,0.2l0.4,0.2l0.4,0.2l0.4,0.2l0.6,0.2l0.4,0.2l0.4,0.2l0.4,0.2
		l0.4,0.2l0.4,0.2l0.4,0.2l0.4,0.2l0.4,0.2l0.4,0.2l0.2,0.2l0.4,0.2l0.4,0.2l0.4,0.2l0.4,0.2l0.4,0.2l0.4,0.2l0.4,0.2l0.2,0.2
		l0.4,0.2l0.4,0.2l0.4,0.2l0.2,0.2l0.4,0.2l0.4,0.2l0.4,0.2l0.2,0.2h0.4c10.7,5.7,24.1,16.7,31.6,25.7c4.4,5.2,8.7,10.4,12.2,16.4
		c1.8,3.2,3.4,6,5.1,9.4c0.6,1.2,4.2,9.8,4.4,10V256l-0.2-0.9l-0.2-1l-0.2-1l-0.2-0.9l-0.2-1l-0.2-0.9l-0.2-1.2l-0.2-1l-0.2-1
		l-0.2-1l-0.2-1l-0.2-1l-0.2-1l-0.2-1l-0.2-0.9l-0.2-1l-0.2-1l-0.2-1l-0.2-1l-0.2-1.2l-0.2-1l-0.2-1l-0.2-1l-0.2-0.9l-0.2-1l-0.2-1
		l-0.2-1l-0.2-0.9l-0.2-1.2l-0.2-0.8l-0.2-0.9l-0.2-1l-0.2-1.2l-0.2-1l-0.2-1l-0.2-1l-0.2-1l-0.2-1l-0.2-1l-0.2-1l-0.2-1l-0.2-1.2
		l-0.2-0.8l-0.2-1l-0.2-1.2l-0.2-1l-0.2-1l-0.2-1l-0.2-1l-0.2-1l-0.2-1l-0.2-1l-0.2-1l-0.2-1.2l-0.2-0.8l-0.2-0.9l-0.2-1.2l-0.2-0.8
		l-0.2-1.1l-0.2-1l-0.2-0.9l-0.2-1l-0.2-1l-0.2-1l-0.2-1l-0.2-0.9l-0.2-1.2l-0.2-0.8l-0.2-1.1l-0.2-0.8l-0.2-0.6l-0.2-0.6L92,186
		l-0.2-0.6l-0.2-0.4l-0.2-0.4l-0.2-0.4l-0.2-0.4l-0.2-0.4l-0.2-0.4l-0.2-0.2l-0.2-0.4l-0.2-0.2l-0.2-0.4l-0.2-0.2l-0.2-0.2l-0.2-0.4
		l-0.2-0.2l-0.2-0.2l-0.2-0.2l-0.2-0.2l-0.2-0.2l-0.2-0.2l-0.2-0.2l-0.2-0.2l-0.2-0.2l-0.4-0.2l-0.2-0.2l-0.2-0.2l-0.4-0.2l-0.2-0.2
		l-0.4-0.2l-0.4-0.2l-0.2-0.2l-0.4-0.2l-0.4-0.2l-0.4-0.2l-0.6-0.2l-0.6-0.2l-0.4-0.2l-0.6-0.2l-0.7-0.2l-0.8-0.2l-1-0.2l-1.5-0.2
		l-1.9-0.2H13L12.8,175.8z"/>
</g>
<g display="none">
	<rect x="184.9" y="132.9" display="inline" fill="#EA611C" width="130.3" height="234.1"/>
	<path id="_Path__1_" display="inline" fill="#E31221" d="M193.1,250c0-45.7,20.9-88.9,56.9-117.1C185.3,82.1,91.7,93.4,40.9,158
		C-9.9,222.7,1.4,316.3,66,367.1c54,42.4,130,42.4,184,0C214.1,338.9,193.1,295.7,193.1,250z"/>
	<path display="inline" fill="#F49D1E" d="M490.9,250c0,82.2-66.7,148.9-148.9,148.9c-33.4,0-65.8-11.2-92-31.8
		c64.6-50.8,75.9-144.4,25.1-209.1c-7.3-9.3-15.7-17.7-25.1-25.1c64.6-50.8,158.2-39.6,209.1,25C479.7,184.2,490.9,216.6,490.9,250
		L490.9,250z"/>
	<path display="inline" fill="#F49D1E" d="M476.7,252.9v-4.8h1.9v-1h-4.9v1h2.1v4.8H476.7z M486.2,252.9v-5.8h-1.5l-1.7,4.1
		l-1.7-4.1h-1.3v5.8h1.1v-4.3l1.6,3.8h1.1l1.6-3.8v4.4L486.2,252.9z"/>
</g>
<g>
	<g>
		<path fill-rule="evenodd" clip-rule="evenodd" fill="#0078A9" d="M491.2,321.3c0,12-7.8,17.6-21.4,17.6h-26v-12h26
			c2.5,0,4.4-0.4,5.2-1.3c0.8-0.8,1.7-2.1,1.7-3.6c0-1.7-0.8-3.4-1.7-4c-0.8-0.8-2.3-1.3-4.8-1.3c-12.4-0.4-28.1,0.4-28.1-17.4
			c0-8,5.2-16.8,19.3-16.8h26.8v12h-24.7c-2.5,0-4.2,0-5.2,0.8c-1.3,1.3-2.1,2.5-2.1,4.4c0,2.1,1.3,3.4,2.7,4
			c1.7,0.4,3.4,0.8,5.2,0.8h7.3c7.6,0,12.4,1.7,15.7,4.4C489.5,312.1,491.2,315.7,491.2,321.3 M434.6,309.1
			c-3.4-2.7-8.2-4.4-15.7-4.4h-7.3c-1.9,0-3.6-0.4-5.2-0.8c-1.5-0.6-2.7-1.9-2.7-4c0-1.9,0.4-3.2,2.1-4.4c1-0.8,2.7-0.8,5.2-0.8
			h24.7v-12h-26.8c-14.5,0-19.3,8.8-19.3,16.8c0,17.9,15.7,17,28.1,17.4c2.5,0,4,0.4,4.8,1.3c0.8,0.6,1.7,2.3,1.7,4
			c0,1.5-0.8,2.7-1.7,3.6c-1.3,0.8-2.7,1.3-5.2,1.3h-26v12h26c13.6,0,21.4-5.7,21.4-17.6C438.6,315.7,436.9,312.1,434.6,309.1
			 M383,327.4h-31.7v-11.4h31v-11.3h-31v-10.3H383v-11.8h-44.9V339H383V327.4z M323.7,285.4c-4.4-2.3-9.6-2.7-16.6-2.7h-30.8V339
			h13.6v-20.6h14.5c4.8,0,7.5,0.4,9.6,2.5c2.3,2.7,2.3,7.6,2.3,11.3v6.7h13.4V328c0-5-0.4-7.6-2.1-10.3c-1.3-1.7-3.6-3.8-6.9-4.8
			c3.8-1.3,9.6-6.1,9.6-14.9C330.4,291.5,328.1,287.9,323.7,285.4 M247.4,282.7h-43L187,301.2l-16.4-18.5h-54.3V339h53.5l17.2-18.5
			l16.6,18.5h26v-18.9h17c11.5,0,23.3-3.1,23.3-18.9C269.8,285.8,257.9,282.7,247.4,282.7 M312.8,306c-2.1,0.8-4,0.8-6.5,0.8
			l-16.3,0.4v-12.8h16.3c2.5,0,4.8,0,6.5,1c1.7,0.8,2.7,2.5,2.7,4.8C315.5,302.8,314.5,304.7,312.8,306 M247.4,308.7h-17.8v-14.3
			h17.8c4.8,0,8,1.9,8,6.7C255.3,306,252.2,308.7,247.4,308.7 M195.6,310.8l20.8-22.1v45.4L195.6,310.8z M162.9,327.4h-33.3v-11.4
			h29.8v-11.3h-29.8v-10.3h33.7l14.9,16.4L162.9,327.4z M453.9,241.9h-19.3l-25.4-42.2v42.2H382l-5.2-12.4h-28.1l-5.2,12.4h-15.7
			c-6.5,0-14.9-1.5-19.7-6.3c-4.4-4.8-6.9-11.3-6.9-21.4c0.2-8.4,1.3-16,7.3-22.1c4-4.4,11.3-6.5,20.5-6.5h12.8v12.2h-12.8
			c-4.8,0-7.8,0.8-10.5,3.2c-2.5,2.5-3.6,6.9-3.6,12.8c0,6.1,1.1,10.5,3.6,13.4c1.9,1.9,5.7,2.7,9.2,2.7h6.1l19.3-44.3h19.9
			l22.6,53.1v-53.1h20.8l23.7,39.1v-39.1h13.8V241.9z M294.3,185.6h-13.6v56.3h13.6V185.6z M265.8,188.1c-4.4-2.5-9.2-2.5-16.1-2.5
			h-30.8v56.3h13.2v-20.4h14.5c4.8,0,8,0.4,10.1,2.3c2.3,2.9,1.9,7.8,1.9,10.9v7.1h13.8v-11.1c0-4.8-0.4-7.4-2.5-10.1
			c-1.3-1.7-3.6-3.6-6.5-4.8c3.8-1.7,9.6-6.1,9.6-14.9C273,194.4,270.2,190.9,265.8,188.1 M209.2,230.4h-31.4V219h31v-11.6h-31
			v-10.1h31.4v-11.8h-45.1v56.3h45.1V230.4z M154.1,185.6h-22l-16.6,38.2l-17.6-38.2H76.3v53.1l-23.1-53.1H33.3L9.2,241.9h14.5
			l5-12.4H57l5,12.4h27.5v-44.1l19.7,44.1h11.5l19.7-44.1v44.1h13.6V185.6z M371.9,217.5l-9.2-22.3l-9.2,22.3H371.9z M255.3,208.5
			c-2.1,1.3-4,1.3-6.7,1.3h-16.6v-12.4h16.6c2.3,0,5,0,6.7,0.8c1.7,1.1,2.5,2.7,2.5,5.2C257.9,205.8,257,207.9,255.3,208.5
			 M33.6,217.5l9.4-22.3l9.2,22.3H33.6z M487.8,8.9H8.8v202.9l16.4-37.4h35l4.8,9.2v-9.2h40.9l9.2,20l9-20h130.4
			c6.1,0,11.3,1.1,15.3,4.4v-4.4h35.8v4.4c5.9-3.4,13.6-4.4,22.4-4.4h51.8l4.8,9.2v-9.2h38.1l5.7,9.2v-9.2h37.3v78.8h-37.7l-7.3-12
			v12h-47l-5.2-12.8H357l-5.2,12.8h-24.5c-9.6,0-16.8-2.3-21.6-4.8v4.8h-58.3v-18.1c0-2.5-0.4-2.9-2.1-2.9h-1.9v21H130.8v-10.1
			l-4,10.1h-23.7l-4-9.7v9.7H53.7l-4.8-12.8H37.3l-5.2,12.8H8.8v237.8h479V346.7c-5,2.3-12.4,3.6-19.5,3.6h-35v-4.8
			c-4,3.2-11.3,4.8-18,4.8H305.2v-18.1c0-2.5-0.4-2.5-2.5-2.5h-1.9v20.6h-36.3v-21.4c-6.1,2.9-12.8,2.9-18.9,2.9h-4v18.5h-44.2
			L187,338.1l-11.5,12.2h-71.1v-79h72.3l10.3,12.2l11.3-12.2H247c5.7,0,14.9,0.8,18.9,4.8v-4.8h43.4c4.4,0,12.8,0.8,18.4,4.8v-4.8
			h65.4v4.8c3.8-3.2,10.5-4.8,16.6-4.8h36.5v4.8c4-2.7,9.6-4.8,17-4.8h24.7V8.9z"/>
	</g>
</g>
</svg>
